#N canvas 545 340 862 441 10;
#X declare -path toposLib;
#X declare -path mtl;
#X declare -lib iem_tab;
#X obj 535 -169 declare -path toposLib;
#X obj 26 -170 cnv 15 500 35 empty empty empty 20 12 0 14 -261234 -66577
0;
#X obj 535 -146 topos.gemwin;
#N canvas 964 111 532 361 init 0;
#X obj 33 89 s toposrec/all/messages;
#X msg 33 59 loop 1;
#X obj 33 34 loadbang;
#X connect 1 0 0 0;
#X connect 2 0 1 0;
#X restore 739 -166 pd init;
#X obj 29 124 topos.skeleton 1;
#X obj 28 101 gemhead;
#X obj 29 161 separator;
#X obj 29 183 topos LH ske/1/l_hand 100 10;
#X msg 140 157 freeze \$1;
#X obj 142 130 tgl 15 0 empty empty empty 17 7 0 10 -262144 -1 -1 0
1;
#X obj 392 -85 topos.features LH speed;
#X obj 580 121 hsl 128 15 0 1 0 0 empty empty ratio -2 -8 0 10 -262144
-1 -1 6622 1;
#X obj 587 160 hsl 128 15 0 1 0 0 empty empty amount -2 -8 0 10 -262144
-1 -1 9987 1;
#X obj 536 225 output~;
#N canvas 990 445 450 300 note 0;
#X obj 53 44 inlet;
#X obj 64 207 pack f 100;
#X obj 64 229 outlet;
#X obj 54 69 metro 500;
#X msg 139 131 0 2 4 7 9 12 14 16 19 21 22;
#X obj 55 92 random 10;
#X obj 64 156 list-nth;
#X obj 66 183 + 48;
#X obj 142 28 inlet;
#X obj 158 67 f;
#X obj 136 102 t b f b;
#X obj 10 29 init 1;
#X obj 186 44 + 100;
#X connect 0 0 3 0;
#X connect 1 0 2 0;
#X connect 3 0 5 0;
#X connect 4 0 6 0;
#X connect 5 0 10 0;
#X connect 6 0 7 0;
#X connect 7 0 1 0;
#X connect 8 0 12 0;
#X connect 9 0 3 1;
#X connect 10 0 4 0;
#X connect 10 1 6 1;
#X connect 10 2 9 0;
#X connect 11 0 3 0;
#X connect 12 0 9 1;
#X restore 389 162 pd note generator;
#X obj 387 141 tgl 15 0 empty empty empty 17 7 0 10 -262144 -1 -1 1
1;
#X floatatom 392 22 5 0 0 0 - - -;
#X obj 453 -19 unpack f f f;
#N canvas 756 352 528 302 fm 0;
#X obj 267 178 *~;
#X floatatom 267 90 0 0 0 0 - - -;
#X floatatom 177 128 0 0 0 0 - - -;
#X obj 177 198 +~;
#X floatatom 289 148 0 0 0 0 - - -;
#X text 174 85 carrier;
#X text 173 103 frequency;
#X text 252 69 frequency;
#X obj 185 226 osc~;
#X text 328 160 index;
#X text 330 141 modulation;
#X obj 272 117 osc~;
#X obj 169 47 mtof;
#X obj 168 -5 inlet;
#X obj 284 26 inlet;
#X obj 326 69 inlet ration;
#X obj 264 55 *;
#X obj 369 206 inlet ead;
#X obj 426 208 inlet ead;
#X obj 122 276 outlet~;
#X obj 173 23 t f b;
#X obj 184 248 *~;
#X obj 250 251 ead~ 200 3000;
#X obj 119 255 hip~ 5;
#X obj 264 225 lop~ 5;
#X text 311 130 frequency;
#X obj 323 116 *;
#X connect 0 0 3 1;
#X connect 1 0 11 0;
#X connect 2 0 3 0;
#X connect 3 0 8 0;
#X connect 4 0 0 1;
#X connect 8 0 21 0;
#X connect 11 0 0 0;
#X connect 12 0 2 0;
#X connect 12 0 16 0;
#X connect 12 0 26 0;
#X connect 13 0 20 0;
#X connect 14 0 16 1;
#X connect 15 0 26 1;
#X connect 16 0 1 0;
#X connect 17 0 22 1;
#X connect 18 0 22 2;
#X connect 20 0 12 0;
#X connect 20 1 22 0;
#X connect 21 0 23 0;
#X connect 22 0 24 0;
#X connect 23 0 19 0;
#X connect 24 0 21 1;
#X connect 26 0 4 0;
#X restore 536 197 pd fm synthesis;
#X floatatom 725 159 5 0 0 0 - - -;
#X floatatom 775 161 5 0 0 0 - - -;
#X floatatom 458 23 5 0 0 0 - - -;
#X floatatom 579 25 5 0 0 0 - - -;
#X text 724 143 attack;
#X text 775 143 decay;
#X text 28 81 FEATURE DETECTION;
#X text 380 -106 MAPPING;
#X text 379 79 SYNTHESIS;
#X text 418 140 metro time;
#X obj 388 116 > 1;
#X obj 395 -46 route volume xyzRange speed displacement;
#X floatatom 633 5 5 0 0 0 - - -;
#X floatatom 693 8 5 0 0 0 - - -;
#X obj 636 29 * 4;
#X floatatom 534 3 5 0 0 0 - - -;
#X obj 505 23 * 0.5;
#X text 30 -154 Applications: mapping [Topos.features] to a FM synthesis
;
#X text 31 -167 DEMO 7;
#X obj 49 -103 cnv 10 16 16 empty empty empty 20 12 0 14 -4034 -66577
0;
#X obj 498 200 cnv 10 16 16 empty empty empty 20 12 0 14 -258113 -66577
0;
#X msg 93 -80 play;
#X msg 138 -80 stop;
#X msg 35 -80 loop \$1;
#X obj 27 22 topos.rec 1;
#X msg 44 -54 load;
#X msg 119 -47 load movs/dance1.txt;
#X msg 118 -23 load movs/dance2.txt;
#X msg 119 -1 load movs/dance3.txt;
#X obj 32 -99 tgl 15 0 empty empty empty 17 7 0 10 -262144 -1 -1 1
1;
#X text 391 44 Volume;
#X text 466 45 Horiz;
#X text 520 41 Vertical;
#X text 658 44 Speed;
#X text 691 25 Displacement;
#X floatatom 510 118 5 0 0 0 - - -;
#X obj 486 142 * 600;
#X obj 510 -126 cnv 10 16 16 empty empty empty 20 12 0 14 -4034 -66577
0;
#X text 513 -127 2;
#X text 52 -104 1;
#X obj 513 247 cnv 10 16 16 empty empty empty 20 12 0 14 -4034 -66577
0;
#X text 516 246 3;
#X obj 423 119 cnv 10 16 16 empty empty empty 20 12 0 14 -4034 -66577
0;
#X obj 486 116 cnv 10 16 16 empty empty empty 20 12 0 14 -4034 -66577
0;
#X obj 488 -106 cnv 10 16 16 empty empty empty 20 12 0 14 -258113 -66577
0;
#X obj 7 188 cnv 10 16 16 empty empty empty 20 12 0 14 -258113 -66577
0;
#X obj 408 -22 cnv 10 16 16 empty empty empty 20 12 0 14 -4034 -66577
0;
#X text 411 -23 4;
#X text 426 118 5;
#X text 489 115 6;
#X obj 243 120 cnv 10 16 16 empty empty empty 20 12 0 14 -258113 -66577
0;
#X text 402 -65 Try to understand the features;
#X text 267 80 Try some mapping;
#X text 578 41 Deepness;
#X connect 4 0 6 0;
#X connect 5 0 4 0;
#X connect 6 0 7 0;
#X connect 8 0 7 2;
#X connect 9 0 8 0;
#X connect 10 0 30 0;
#X connect 11 0 18 1;
#X connect 12 0 18 2;
#X connect 14 0 18 0;
#X connect 15 0 14 0;
#X connect 17 0 21 0;
#X connect 17 1 35 0;
#X connect 17 2 22 0;
#X connect 18 0 13 0;
#X connect 18 0 13 1;
#X connect 19 0 18 3;
#X connect 20 0 18 4;
#X connect 21 0 55 0;
#X connect 22 0 11 0;
#X connect 29 0 15 0;
#X connect 30 0 16 0;
#X connect 30 1 17 0;
#X connect 30 2 31 0;
#X connect 30 3 32 0;
#X connect 31 0 33 0;
#X connect 34 0 35 1;
#X connect 35 0 12 0;
#X connect 40 0 43 0;
#X connect 41 0 43 0;
#X connect 42 0 43 0;
#X connect 44 0 43 0;
#X connect 45 0 43 0;
#X connect 46 0 43 0;
#X connect 47 0 43 0;
#X connect 48 0 42 0;
#X connect 54 0 55 1;
#X connect 55 0 14 1;
