#N canvas 190 75 1315 424 10;
#X declare -path toposLib;
#X declare -path mtl;
#X declare -path mtl;
#X declare -lib iem_tab;
#X declare -lib iem_tab;
#X declare -lib mrpeach;
#X declare -lib mrpeach;
#X declare -lib mrpeach;
#X declare -lib mrpeach;
#X declare -lib mrpeach;
#X declare -lib mrpeach;
#X declare -lib mrpeach;
#X declare -lib mrpeach;
#X declare -lib mrpeach;
#X declare -lib mrpeach;
#X declare -lib mrpeach;
#X declare -lib mrpeach;
#X declare -lib mrpeach;
#X declare -lib mrpeach;
#X declare -lib mrpeach;
#X declare -lib iem_tab;
#X declare -lib iem_tab;
#X msg 25 49 play;
#X msg 31 74 stop;
#X floatatom 25 185 5 0 0 0 - - -;
#X msg 35 124 loop \$1;
#X obj 36 105 tgl 15 0 empty empty empty 17 7 0 10 -262144 -1 -1 0
1;
#X obj 87 134 pp load;
#X msg 98 111 test2.txt;
#X obj 96 62 bng 15 250 50 0 empty empty empty 17 7 0 10 -262144 -1
-1;
#X obj 11 -22 declare -path toposLib;
#X obj 9 2 topos.gw;
#X obj 477 46 topos.skeleton 1;
#X obj 477 24 scaleXYZ;
#X floatatom 505 -1 5 0 0 0 - - -;
#X obj 480 -75 gemhead;
#X obj 478 -22 translateXYZ;
#X obj 478 -45 rotateXYZ;
#X obj 206 22 separator;
#X msg 276 41 freeze \$1;
#X obj 278 14 tgl 15 0 empty empty empty 17 7 0 10 -262144 -1 -1 0
1;
#X obj 207 45 alpha;
#X msg 98 88 ex2.txt;
#X obj 24 160 topos.rec 1;
#N canvas 1071 359 563 525 synthesis 0;
#X obj 23 2 inlet;
#X obj 220 75 vsl 10 40 0 1 0 0 empty empty empty 0 -9 0 10 -262144
-1 -1 0 1;
#X obj 232 75 vsl 10 40 0 1 0 0 empty empty empty 0 -9 0 10 -262144
-1 -1 0 1;
#X obj 244 76 vsl 10 40 0 1 0 0 empty empty empty 0 -9 0 10 -262144
-1 -1 0 1;
#X obj 254 75 vsl 10 40 0 1 0 0 empty empty empty 0 -9 0 10 -262144
-1 -1 0 1;
#X obj 266 75 vsl 10 40 0 1 0 0 empty empty empty 0 -9 0 10 -262144
-1 -1 0 1;
#X obj 278 75 vsl 10 40 0 1 0 0 empty empty empty 0 -9 0 10 -262144
-1 -1 0 1;
#X obj 288 75 vsl 10 40 0 1 0 0 empty empty empty 0 -9 0 10 -262144
-1 -1 0 1;
#X obj 300 75 vsl 10 40 0 1 0 0 empty empty empty 0 -9 0 10 -262144
-1 -1 0 1;
#X obj 312 75 vsl 10 40 0 1 0 0 empty empty empty 0 -9 0 10 -262144
-1 -1 0 1;
#X obj 324 75 vsl 10 40 0 1 0 0 empty empty empty 0 -9 0 10 -262144
-1 -1 0 1;
#X obj 200 30 unpack f f f f f f f f f f;
#X obj 118 164 line;
#X obj 227 286 vsl 10 40 0 1 0 0 empty empty empty 0 -9 0 10 -262144
-1 -1 0 1;
#X obj 118 142 pack f 100;
#X obj 149 184 line;
#X obj 240 285 vsl 10 40 0 1 0 0 empty empty empty 0 -9 0 10 -262144
-1 -1 0 1;
#X obj 149 162 pack f 100;
#X obj 184 204 line;
#X obj 252 287 vsl 10 40 0 1 0 0 empty empty empty 0 -9 0 10 -262144
-1 -1 0 1;
#X obj 184 182 pack f 100;
#X obj 174 124 r \$0f;
#X obj 206 143 r \$0f;
#X obj 241 160 r \$0f;
#X obj 214 226 line;
#X obj 265 286 vsl 10 40 0 1 0 0 empty empty empty 0 -9 0 10 -262144
-1 -1 0 1;
#X obj 214 204 pack f 100;
#X obj 271 182 r \$0f;
#X obj 245 247 line;
#X obj 275 284 vsl 10 40 0 1 0 0 empty empty empty 0 -9 0 10 -262144
-1 -1 0 1;
#X obj 245 225 pack f 100;
#X obj 302 203 r \$0f;
#X obj 283 155 line;
#X obj 286 283 vsl 10 40 0 1 0 0 empty empty empty 0 -9 0 10 -262144
-1 -1 0 1;
#X obj 283 133 pack f 100;
#X obj 314 175 line;
#X obj 298 283 vsl 10 40 0 1 0 0 empty empty empty 0 -9 0 10 -262144
-1 -1 0 1;
#X obj 314 153 pack f 100;
#X obj 349 195 line;
#X obj 310 283 vsl 10 40 0 1 0 0 empty empty empty 0 -9 0 10 -262144
-1 -1 0 1;
#X obj 349 173 pack f 100;
#X obj 339 115 r \$0f;
#X obj 371 134 r \$0f;
#X obj 406 151 r \$0f;
#X obj 379 217 line;
#X obj 322 283 vsl 10 40 0 1 0 0 empty empty empty 0 -9 0 10 -262144
-1 -1 0 1;
#X obj 379 195 pack f 100;
#X obj 436 173 r \$0f;
#X obj 410 238 line;
#X obj 337 283 vsl 10 40 0 1 0 0 empty empty empty 0 -9 0 10 -262144
-1 -1 0 1;
#X obj 410 216 pack f 100;
#X obj 467 194 r \$0f;
#X obj 208 355 pack f f f f f f f f f f;
#X text 500 141 Smoothing;
#X obj 24 243 metro 1000;
#X obj 24 218 tgl 15 0 empty empty empty 17 7 0 10 -262144 -1 -1 0
1;
#X obj 104 -3 inlet;
#X obj 21 264 random 12;
#X obj 21 308 + 60;
#X obj 45 333 list-find;
#X msg 100 303 0 2 4 5 7 9 11;
#X obj 100 277 loadbang;
#X obj 25 359 spigot;
#X floatatom 96 357 5 0 0 0 - - -;
#X obj 27 492 outlet~;
#X obj 24 381 pack f 100;
#X obj 28 426 mtl/instrument~ 10 additive~ 0 0 0 0 0 0 0 0 0 0;
#X obj 22 286 t f f;
#X obj 30 403 t a b;
#X obj 77 450 ead~ 10 7000;
#X obj 28 458 *~ 1;
#X obj 114 45 switch~;
#X connect 0 0 11 0;
#X connect 1 0 14 0;
#X connect 2 0 17 0;
#X connect 3 0 20 0;
#X connect 4 0 26 0;
#X connect 5 0 30 0;
#X connect 6 0 34 0;
#X connect 7 0 37 0;
#X connect 8 0 40 0;
#X connect 9 0 46 0;
#X connect 10 0 50 0;
#X connect 11 0 1 0;
#X connect 11 1 2 0;
#X connect 11 2 3 0;
#X connect 11 3 4 0;
#X connect 11 4 5 0;
#X connect 11 5 6 0;
#X connect 11 6 7 0;
#X connect 11 7 8 0;
#X connect 11 8 9 0;
#X connect 11 9 10 0;
#X connect 12 0 13 0;
#X connect 13 0 52 0;
#X connect 14 0 12 0;
#X connect 15 0 16 0;
#X connect 16 0 52 1;
#X connect 17 0 15 0;
#X connect 18 0 19 0;
#X connect 19 0 52 2;
#X connect 20 0 18 0;
#X connect 21 0 14 1;
#X connect 23 0 20 1;
#X connect 24 0 25 0;
#X connect 25 0 52 3;
#X connect 26 0 24 0;
#X connect 27 0 26 1;
#X connect 28 0 29 0;
#X connect 29 0 52 4;
#X connect 30 0 28 0;
#X connect 31 0 30 1;
#X connect 32 0 33 0;
#X connect 33 0 52 5;
#X connect 34 0 32 0;
#X connect 35 0 36 0;
#X connect 36 0 52 6;
#X connect 37 0 35 0;
#X connect 38 0 39 0;
#X connect 39 0 52 7;
#X connect 40 0 38 0;
#X connect 41 0 34 1;
#X connect 43 0 40 1;
#X connect 44 0 45 0;
#X connect 45 0 52 8;
#X connect 46 0 44 0;
#X connect 47 0 46 1;
#X connect 48 0 49 0;
#X connect 49 0 52 9;
#X connect 50 0 48 0;
#X connect 51 0 50 1;
#X connect 52 0 66 1;
#X connect 54 0 57 0;
#X connect 55 0 54 0;
#X connect 56 0 55 0;
#X connect 56 0 71 0;
#X connect 57 0 67 0;
#X connect 58 0 62 0;
#X connect 59 1 62 1;
#X connect 59 1 63 0;
#X connect 60 0 59 1;
#X connect 61 0 60 0;
#X connect 62 0 65 0;
#X connect 65 0 68 0;
#X connect 66 0 70 0;
#X connect 67 0 58 0;
#X connect 67 1 59 0;
#X connect 68 0 66 0;
#X connect 68 1 69 0;
#X connect 70 0 64 0;
#X restore 783 271 pd synthesis;
#X obj 855 246 tgl 15 0 empty empty empty 17 7 0 10 -262144 -1 -1 0
1;
#X obj 287 245 output~;
#X text 12 -59 Fm synthesis;
#X obj 589 21 separator;
#X msg 659 40 freeze \$1;
#X obj 661 13 tgl 15 0 empty empty empty 17 7 0 10 -262144 -1 -1 0
1;
#X obj 590 44 alpha;
#X obj 591 67 topos r skeleton/1/r_hand/messages 100 10;
#X obj 208 67 topos l skeleton/1/l_hand/messages 100 10;
#X msg 622 -52 alpha 0.2;
#X obj 612 -30 s topos/all/messages;
#X msg 287 -48 debug 1;
#X obj 413 85 separator;
#X obj 206 143 route distanceFrom envelopmentVels touchVels;
#X obj 566 135 topos.features l xyzRange;
#X obj 713 160 unpack f f f;
#X obj 539 180 topos.features l xyzRange;
#X obj 686 205 unpack f f f;
#N canvas 916 461 453 392 fm 1;
#X floatatom 364 149 5 0 0 0 - - -;
#X floatatom 405 149 5 0 0 0 - - -;
#X floatatom 446 149 5 0 0 0 - - -;
#X floatatom 326 150 5 0 0 0 - - -;
#X text 410 130 ADSR;
#N canvas 1 57 450 300 adsr 0;
#X obj 67 80 pack f f f f;
#X obj 68 50 t b f;
#X obj 109 50 t b f;
#X obj 151 51 t b f;
#X obj 70 114 outlet;
#X obj 64 21 inlet;
#X obj 104 21 inlet;
#X obj 144 21 inlet;
#X obj 184 21 inlet;
#X connect 0 0 4 0;
#X connect 1 0 0 0;
#X connect 1 1 0 1;
#X connect 2 0 0 0;
#X connect 2 1 0 2;
#X connect 3 0 0 0;
#X connect 3 1 0 3;
#X connect 5 0 0 0;
#X connect 6 0 1 0;
#X connect 7 0 2 0;
#X connect 8 0 3 0;
#X restore 326 178 pd adsr;
#X obj 124 60 hsl 128 15 0 1 0 0 empty empty ratio -2 -8 0 10 -262144
-1 -1 0 1;
#X obj 154 105 hsl 128 15 0 1 0 0 empty empty fine -2 -8 0 10 -262144
-1 -1 0 1;
#X obj 176 143 hsl 128 15 0 1 0 0 empty empty amount -2 -8 0 10 -262144
-1 -1 0 1;
#X obj 34 151 pack f 100;
#X obj 35 71 random 12;
#X obj 39 1 inlet;
#X obj 37 104 + 60;
#X obj 112 264 ead~ 20 5000;
#X obj 33 185 t a b;
#X obj 31 305 outlet~;
#X obj 131 17 inlet;
#X obj 38 263 *~;
#X obj 45 51 bang;
#X obj 81 32 sel 1;
#X obj 52 21 change;
#X obj 37 233 private/mtl/simpleFm~ /id simpleFm;
#X connect 0 0 5 1;
#X connect 1 0 5 2;
#X connect 2 0 5 3;
#X connect 3 0 5 0;
#X connect 6 0 21 1;
#X connect 9 0 14 0;
#X connect 10 0 12 0;
#X connect 11 0 20 0;
#X connect 12 0 9 0;
#X connect 13 0 17 1;
#X connect 14 0 21 0;
#X connect 14 1 13 0;
#X connect 16 0 8 0;
#X connect 17 0 15 0;
#X connect 18 0 10 0;
#X connect 19 0 18 0;
#X connect 20 0 19 0;
#X connect 21 0 17 0;
#X restore 329 209 pd fm;
#X obj 809 -54;
#X obj 858 30 pipelist;
#X obj 859 7 unpackOSC;
#X obj 1023 116 tgl 15 0 empty empty empty 17 7 0 10 -262144 -1 -1
0 1;
#X msg 1017 140 onOff \$1;
#X msg 947 40 body;
#X msg 948 62 world;
#X obj 854 164 topos.synapse2skeleton body 3 1;
#X obj 857 -31 udpreceive 12345;
#X obj 379 178 bng 15 250 50 0 empty empty empty 17 7 0 10 -262144
-1 -1;
#N canvas 916 461 453 392 fm 0;
#X floatatom 364 149 5 0 0 0 - - -;
#X floatatom 405 149 5 0 0 0 - - -;
#X floatatom 446 149 5 0 0 0 - - -;
#X floatatom 326 150 5 0 0 0 - - -;
#X text 410 130 ADSR;
#N canvas 1 57 450 300 adsr 0;
#X obj 67 80 pack f f f f;
#X obj 68 50 t b f;
#X obj 109 50 t b f;
#X obj 151 51 t b f;
#X obj 70 114 outlet;
#X obj 64 21 inlet;
#X obj 104 21 inlet;
#X obj 144 21 inlet;
#X obj 184 21 inlet;
#X connect 0 0 4 0;
#X connect 1 0 0 0;
#X connect 1 1 0 1;
#X connect 2 0 0 0;
#X connect 2 1 0 2;
#X connect 3 0 0 0;
#X connect 3 1 0 3;
#X connect 5 0 0 0;
#X connect 6 0 1 0;
#X connect 7 0 2 0;
#X connect 8 0 3 0;
#X restore 326 178 pd adsr;
#X obj 124 60 hsl 128 15 0 1 0 0 empty empty ratio -2 -8 0 10 -262144
-1 -1 0 1;
#X obj 37 233 mtl/simpleFm~ /id simpleFm;
#X obj 154 105 hsl 128 15 0 1 0 0 empty empty fine -2 -8 0 10 -262144
-1 -1 0 1;
#X obj 176 143 hsl 128 15 0 1 0 0 empty empty amount -2 -8 0 10 -262144
-1 -1 0 1;
#X obj 34 151 pack f 100;
#X obj 35 71 random 12;
#X obj 39 1 inlet;
#X obj 37 104 + 60;
#X obj 112 264 ead~ 20 5000;
#X obj 33 185 t a b;
#X obj 31 305 outlet~;
#X obj 131 17 inlet;
#X obj 38 263 *~;
#X obj 45 51 bang;
#X obj 81 32 sel 1;
#X obj 52 21 change;
#X connect 0 0 5 1;
#X connect 1 0 5 2;
#X connect 2 0 5 3;
#X connect 3 0 5 0;
#X connect 5 0 7 4;
#X connect 6 0 7 1;
#X connect 7 0 18 0;
#X connect 8 0 7 2;
#X connect 9 0 7 3;
#X connect 10 0 15 0;
#X connect 11 0 13 0;
#X connect 12 0 21 0;
#X connect 13 0 10 0;
#X connect 14 0 18 1;
#X connect 15 0 7 0;
#X connect 15 1 14 0;
#X connect 17 0 9 0;
#X connect 18 0 16 0;
#X connect 19 0 11 0;
#X connect 20 0 19 0;
#X connect 21 0 20 0;
#X restore 275 208 pd fm;
#X obj 414 173 packel 1;
#X floatatom 420 201 5 0 0 0 - - -;
#X msg 273 94 debug color 0.5 0.5 0.5;
#X msg 178 -22 dimen 800 600;
#X obj 205 116 topos.rel.regions rel l r 1;
#X connect 0 0 21 0;
#X connect 1 0 21 0;
#X connect 3 0 21 0;
#X connect 4 0 3 0;
#X connect 5 0 21 0;
#X connect 6 0 5 0;
#X connect 7 0 5 0;
#X connect 11 0 10 0;
#X connect 12 0 11 1;
#X connect 12 0 11 2;
#X connect 12 0 11 3;
#X connect 13 0 15 0;
#X connect 13 0 16 0;
#X connect 13 0 26 0;
#X connect 13 0 35 0;
#X connect 14 0 11 0;
#X connect 15 0 14 0;
#X connect 16 0 19 0;
#X connect 17 0 31 2;
#X connect 18 0 17 0;
#X connect 19 0 31 0;
#X connect 20 0 5 0;
#X connect 21 0 2 0;
#X connect 23 0 22 1;
#X connect 26 0 29 0;
#X connect 27 0 30 2;
#X connect 28 0 27 0;
#X connect 29 0 30 0;
#X connect 32 0 33 0;
#X connect 34 0 57 0;
#X connect 35 0 57 0;
#X connect 36 2 51 0;
#X connect 36 2 52 0;
#X connect 36 2 41 0;
#X connect 36 2 53 0;
#X connect 37 1 38 0;
#X connect 38 1 41 1;
#X connect 39 1 40 0;
#X connect 40 1 52 1;
#X connect 41 0 24 0;
#X connect 43 0 49 0;
#X connect 44 0 43 0;
#X connect 44 1 43 1;
#X connect 45 0 46 0;
#X connect 46 0 49 0;
#X connect 47 0 49 0;
#X connect 48 0 49 0;
#X connect 50 0 44 0;
#X connect 52 0 24 0;
#X connect 53 0 54 0;
#X connect 55 0 57 0;
#X connect 56 0 9 0;
#X connect 57 0 36 0;
