#N canvas 499 66 868 679 10;
#X declare -path toposLib;
#X declare -lib iem_tab;
#X declare -path mtl;
#X declare -lib iem_tab;
#X floatatom 461 -11 5 0 0 0 - - -;
#X obj 357 20 route volume;
#X obj 356 63 route xyzRange;
#X floatatom 358 43 5 0 0 0 - - -;
#X obj 374 88 pddp/print;
#X obj 373 230 pddp/print;
#X obj 363 206 route meanPosition;
#X floatatom 361 138 5 0 0 0 - - -;
#X obj 360 115 route displacement;
#X floatatom 362 182 5 0 0 0 - - -;
#X obj 361 159 route speed;
#X obj 374 286 pddp/print;
#X obj 363 261 route inPoints;
#X obj 352 541 pddp/print;
#X obj 352 519 route getPosPoint;
#X msg 307 -39 getPosPoint 5;
#X floatatom 364 337 5 0 0 0 - - -;
#X obj 364 313 route centerPointsAvr;
#X obj 362 368 route centerPointsStd;
#X floatatom 362 391 5 0 0 0 - - -;
#X obj 367 443 pddp/print;
#X obj 354 419 route centerPointsDist;
#X obj 522 -99 declare -path toposLib;
#X obj 9 -100 cnv 15 500 35 empty empty empty 20 12 0 14 -261234 -66577
0;
#X obj 522 -76 topos.gemwin;
#N canvas 824 115 532 361 init 0;
#X obj 33 89 s toposrec/all/messages;
#X msg 33 59 loop 1;
#X obj 33 34 loadbang;
#X connect 1 0 0 0;
#X connect 2 0 1 0;
#X restore 726 -96 pd init;
#X text 442 16 volume: total volume (f) of the bounding rectangular
parallelepiped;
#X text 455 63 xyzRange: range of each dimension (f f f);
#X text 489 208 meanPosition: mean position of the topology (f f f)
;
#X text 511 260 inPoints: actual 3d point projected onto the topology
;
#X text 352 470 getPosPoint: when the message [getPosition N( is sent
to the 1st inlet \, the abstraction returns the positon of the N point
in the topology;
#X text 513 310 centerPointsAvr: Average distance between all points
and the centroid of the topology;
#X text 514 365 centerPointsStd: Standard deviation of the distance
between all points and the centroid of the topology.;
#X text 513 411 centerPointsDist: Distances between each point and
their mean.;
#X text 459 159 speed: instantaneous velocity of the point cloud;
#X obj 99 252 cnv 15 25 150 empty empty empty 20 12 0 14 -261234 -66577
0;
#X text 171 145 <- Symbolic link;
#X text 189 369 <- Symbolic link;
#X text 171 163 between topos and skeleton;
#X text 174 381 between topos and features;
#X obj 308 -9 topos.features LH speed;
#X obj 125 148 cnv 10 16 16 empty empty empty 20 12 0 14 -258113 -66577
0;
#X obj 501 -54 cnv 10 16 16 empty empty empty 20 12 0 14 -4034 -66577
0;
#X text 505 -55 1;
#X text 15 -99 DEMO 4;
#X obj 146 103 cnv 15 25 100 empty empty empty 20 12 0 14 -261234 -66577
0;
#X msg 95 31 play;
#X msg 106 58 stop;
#X msg 88 6 loop \$1;
#X obj 89 -13 tgl 15 0 empty empty empty 17 7 0 10 -262144 -1 -1 1
1;
#X obj 145 91 pp load;
#X obj 156 -9 bng 15 250 50 0 empty empty empty 17 7 0 10 -262144 -1
-1;
#X obj 88 113 topos.rec 1;
#X msg 165 12 movs/dance1.txt;
#X msg 168 37 movs/dance2.txt;
#X msg 166 62 movs/dance3.txt;
#X obj 93 -38 cnv 10 16 16 empty empty empty 20 12 0 14 -4034 -66577
0;
#X text 96 -39 2;
#X obj 184 -11 cnv 10 16 16 empty empty empty 20 12 0 14 -4034 -66577
0;
#X text 188 -12 3;
#X obj 405 -35 cnv 10 16 16 empty empty empty 20 12 0 14 -4034 -66577
0;
#X text 409 -36 4;
#X text 8 135 Symbolic links:;
#X obj 290 -7 cnv 10 16 16 empty empty empty 20 12 0 14 -258113 -66577
0;
#X obj 66 182 topos.skeleton 1;
#X obj 65 159 gemhead;
#X obj 66 227 separator;
#X obj 66 249 topos LH ske/1/l_hand 100 10;
#X obj 15 345 topos.features LH speed;
#X obj 43 302 cnv 10 16 16 empty empty empty 20 12 0 14 -258113 -66577
0;
#X text 13 -82 Extracting features from a Topos point-cloud;
#X text 502 -15 The third argument sends the specified feature (see
below) to the second inlet for a fast prototyping;
#X text 491 113 displacement: accumulative displacement of the point
cloud;
#X floatatom 148 272 5 0 0 0 - - -;
#X text 146 292 Actual point being replaced;
#X text 147 306 by the cache;
#X connect 1 0 3 0;
#X connect 2 0 4 0;
#X connect 6 0 5 0;
#X connect 8 0 7 0;
#X connect 10 0 9 0;
#X connect 12 0 11 0;
#X connect 14 0 13 0;
#X connect 15 0 40 0;
#X connect 17 0 16 0;
#X connect 18 0 19 0;
#X connect 21 0 20 0;
#X connect 40 0 1 0;
#X connect 40 0 2 0;
#X connect 40 0 6 0;
#X connect 40 0 8 0;
#X connect 40 0 10 0;
#X connect 40 0 12 0;
#X connect 40 0 14 0;
#X connect 40 0 17 0;
#X connect 40 0 18 0;
#X connect 40 0 21 0;
#X connect 40 1 0 0;
#X connect 46 0 52 0;
#X connect 47 0 52 0;
#X connect 48 0 52 0;
#X connect 49 0 48 0;
#X connect 50 0 52 0;
#X connect 51 0 50 0;
#X connect 53 0 50 0;
#X connect 54 0 50 0;
#X connect 55 0 50 0;
#X connect 64 0 66 0;
#X connect 65 0 64 0;
#X connect 66 0 67 0;
#X connect 67 1 73 0;
