#N canvas 394 252 885 463 10;
#X declare -lib iem_tab;
#X declare -path mtl;
#X declare -path mtl;
#X declare -lib iem_tab;
#X declare -lib iem_tab;
#X declare -path toposLib;
#X obj 273 223 route distanceFrom hitPoint;
#X msg 379 138 debug color 0 0 0;
#X obj 23 236 pddp/print;
#X obj 23 209 route hitPoint state;
#X floatatom 139 242 5 0 0 0 - - -;
#X obj 226 167 topos.rel.pointRegion PR ske/1/r_hand/ rl 0.2;
#X msg 372 55 color 1 0 0;
#X msg 370 30 color 0 0 1;
#X msg 608 137 debug \$1;
#X obj 608 119 tgl 15 0 empty empty empty 17 7 0 10 -262144 -1 -1 0
1;
#X obj 525 124 gemhead;
#X obj 177 57 topos rr ske/1/r_hand 100 10;
#X obj 184 31 topos rl ske/1/l_hand 100 10;
#X obj 527 225 pddp/print;
#X obj 526 193 route toposState distanceFrom;
#X obj 613 256 pddp/print;
#X msg 311 137 debug \$1;
#X obj 312 119 tgl 15 0 empty empty empty 17 7 0 10 -262144 -1 -1 0
1;
#X obj 227 125 gemhead;
#X obj 525 162 topos.rel.regions RR rr rl 1;
#X obj 429 -126 declare -path toposLib;
#X obj -80 -127 cnv 15 500 35 empty empty empty 20 12 0 14 -261234
-66577 0;
#X obj 429 -103 topos.gemwin;
#N canvas 1326 77 532 361 init 0;
#X obj 33 89 s toposrec/all/messages;
#X msg 33 59 loop 1;
#X obj 33 34 loadbang;
#X connect 1 0 0 0;
#X connect 2 0 1 0;
#X restore 633 -123 pd init;
#X obj 178 -41 topos.skeleton 1;
#X obj 178 -75 gemhead;
#X obj 178 -18 separator;
#X text 189 -59 Draws the skeleton:;
#X text 205 1 Creates the point clouds for both hands:;
#X msg 574 -46 alpha 0.2;
#X obj 577 -24 s topos/all/messages;
#X text -81 103 Point-to-Point relationships:;
#X text 239 102 Point-to-Region relationships:;
#X text 499 96 Region-to-Region relationships:;
#X text -74 -127 Detecting relationships between points and regions
;
#X msg 632 119 debug color 0 0 0;
#X obj 272 249 pddp/print;
#X obj 353 274 pddp/print;
#X obj -89 165 topos.rel.points PP ske/1/r_hand ske/1/l_hand 0.2;
#X msg -3 -66 play;
#X msg 42 -66 stop;
#X floatatom -68 60 5 0 0 0 - - -;
#X msg -61 -66 loop \$1;
#X obj -69 36 topos.rec 1;
#X msg -52 -40 load;
#X msg 23 -33 load movs/dance1.txt;
#X msg 22 -9 load movs/dance2.txt;
#X msg 23 13 load movs/dance3.txt;
#X obj -64 -85 tgl 15 0 empty empty empty 17 7 0 10 -262144 -1 -1 1
1;
#X connect 0 0 36 0;
#X connect 0 1 37 0;
#X connect 1 0 5 0;
#X connect 3 0 2 0;
#X connect 3 1 4 0;
#X connect 5 1 0 0;
#X connect 6 0 11 2;
#X connect 7 0 12 2;
#X connect 8 0 19 0;
#X connect 9 0 8 0;
#X connect 10 0 19 0;
#X connect 14 0 13 0;
#X connect 14 1 15 0;
#X connect 16 0 5 0;
#X connect 17 0 16 0;
#X connect 18 0 5 0;
#X connect 19 2 14 0;
#X connect 24 0 26 0;
#X connect 25 0 24 0;
#X connect 26 0 11 0;
#X connect 26 0 12 0;
#X connect 29 0 30 0;
#X connect 35 0 19 0;
#X connect 38 1 3 0;
#X connect 39 0 43 0;
#X connect 40 0 43 0;
#X connect 42 0 43 0;
#X connect 43 0 41 0;
#X connect 44 0 43 0;
#X connect 45 0 43 0;
#X connect 46 0 43 0;
#X connect 47 0 43 0;
#X connect 48 0 42 0;
