#N canvas 465 165 862 441 10;
#X declare -path toposLib;
#X declare -path mtl;
#X declare -lib iem_tab;
#X obj 535 -169 declare -path toposLib;
#X obj 26 -170 cnv 15 500 35 empty empty empty 20 12 0 14 -261234 -66577
0;
#X obj 535 -146 topos.gemwin;
#N canvas 964 111 532 361 init 0;
#X obj 33 89 s toposrec/all/messages;
#X msg 33 59 loop 1;
#X obj 33 34 loadbang;
#X connect 1 0 0 0;
#X connect 2 0 1 0;
#X restore 739 -166 pd init;
#X msg 34 -102 play;
#X msg 72 -103 stop;
#X floatatom 34 46 5 0 0 0 - - -;
#X msg 110 -82 loop \$1;
#X obj 111 -101 tgl 15 0 empty empty empty 17 7 0 10 -262144 -1 -1
1 1;
#X obj 94 -8 pp load;
#X obj 99 -31 bng 15 250 50 0 empty empty empty 17 7 0 10 -262144 -1
-1;
#X obj 33 22 topos.rec 1;
#X msg 180 -8 ex2.txt;
#X obj 29 124 topos.skeleton 1;
#X obj 28 101 gemhead;
#X obj 29 161 separator;
#X obj 29 183 topos LH ske/1/l_hand 100 10;
#X msg 140 157 freeze \$1;
#X obj 142 130 tgl 15 0 empty empty empty 17 7 0 10 -262144 -1 -1 0
1;
#X obj 286 -90 topos.features LH speed;
#X obj 430 115 hsl 128 15 0 1 0 0 empty empty ratio -2 -8 0 10 -262144
-1 -1 3392 1;
#X obj 453 150 hsl 128 15 0 1 0 0 empty empty amount -2 -8 0 10 -262144
-1 -1 9231 1;
#X obj 406 215 output~;
#N canvas 990 445 450 300 note 1;
#X obj 53 44 inlet;
#X obj 64 207 pack f 100;
#X obj 64 229 outlet;
#X obj 54 69 metro 500;
#X msg 139 131 0 2 4 7 9 12 14 16 19 21 22;
#X obj 55 92 random 10;
#X obj 64 156 list-nth;
#X obj 66 183 + 48;
#X obj 142 28 inlet;
#X obj 158 67 f;
#X obj 136 102 t b f b;
#X obj 10 29 init 1;
#X obj 186 44 + 100;
#X obj 50 17;
#X connect 0 0 3 0;
#X connect 1 0 2 0;
#X connect 3 0 5 0;
#X connect 4 0 6 0;
#X connect 5 0 10 0;
#X connect 6 0 7 0;
#X connect 7 0 1 0;
#X connect 8 0 12 0;
#X connect 9 0 3 1;
#X connect 10 0 4 0;
#X connect 10 1 6 1;
#X connect 10 2 9 0;
#X connect 11 0 3 0;
#X connect 12 0 9 1;
#X restore 287 147 pd note generator;
#X obj 285 126 tgl 15 0 empty empty empty 17 7 0 10 -262144 -1 -1 1
1;
#X floatatom 282 15 5 0 0 0 - - -;
#X obj 348 -14 unpack f f f;
#N canvas 777 659 528 302 fm 0;
#X obj 267 178 *~;
#X floatatom 267 90 0 0 0 0 - - -;
#X floatatom 177 128 0 0 0 0 - - -;
#X obj 177 198 +~;
#X floatatom 289 148 0 0 0 0 - - -;
#X text 174 85 carrier;
#X text 173 103 frequency;
#X text 252 69 frequency;
#X obj 185 226 osc~;
#X text 328 160 index;
#X text 330 141 modulation;
#X obj 272 117 osc~;
#X obj 169 47 mtof;
#X obj 168 -5 inlet;
#X obj 284 26 inlet;
#X obj 326 69 inlet ration;
#X obj 264 55 *;
#X obj 369 206 inlet ead;
#X obj 426 208 inlet ead;
#X obj 122 276 outlet~;
#X obj 173 23 t f b;
#X obj 184 248 *~;
#X obj 250 251 ead~ 200 3000;
#X obj 119 255 hip~ 5;
#X obj 264 225 lop~ 5;
#X text 311 130 frequency;
#X obj 323 116 *;
#X connect 0 0 3 1;
#X connect 1 0 11 0;
#X connect 2 0 3 0;
#X connect 3 0 8 0;
#X connect 4 0 0 1;
#X connect 8 0 21 0;
#X connect 11 0 0 0;
#X connect 12 0 2 0;
#X connect 12 0 16 0;
#X connect 12 0 26 0;
#X connect 13 0 20 0;
#X connect 14 0 16 1;
#X connect 15 0 26 1;
#X connect 16 0 1 0;
#X connect 17 0 22 1;
#X connect 18 0 22 2;
#X connect 20 0 12 0;
#X connect 20 1 22 0;
#X connect 21 0 23 0;
#X connect 22 0 24 0;
#X connect 23 0 19 0;
#X connect 24 0 21 1;
#X connect 26 0 4 0;
#X restore 406 187 pd fm synthesis;
#X floatatom 595 149 5 0 0 0 - - -;
#X floatatom 645 151 5 0 0 0 - - -;
#X floatatom 350 11 5 0 0 0 - - -;
#X floatatom 436 12 5 0 0 0 - - -;
#X text 594 133 attack;
#X text 645 133 decay;
#X text 28 81 FEATURE DETECTION;
#X text 263 -114 MAPPING;
#X text 226 81 SYNTHESIS;
#X text 32 -170 Applications: mappint [Topos.features] to a FM synthesis
;
#X text 316 125 metro time;
#X obj 384 127 * 1000;
#X obj 286 98 > 1;
#X obj 285 -56 route volume xyzRange speed displacement;
#X floatatom 464 -18 5 0 0 0 - - -;
#X floatatom 523 8 5 0 0 0 - - -;
#X obj 481 11 * 4;
#X msg 179 -77 dance1.txt;
#X msg 179 -55 dance2.txt;
#X msg 180 -29 dance3.txt;
#X floatatom 440 41 5 0 0 0 - - -;
#X obj 397 41 * 0.5;
#X connect 4 0 11 0;
#X connect 5 0 11 0;
#X connect 7 0 11 0;
#X connect 8 0 7 0;
#X connect 9 0 11 0;
#X connect 10 0 9 0;
#X connect 11 0 6 0;
#X connect 12 0 9 0;
#X connect 13 0 15 0;
#X connect 14 0 13 0;
#X connect 15 0 16 0;
#X connect 17 0 16 2;
#X connect 18 0 17 0;
#X connect 19 0 41 0;
#X connect 20 0 27 1;
#X connect 21 0 27 2;
#X connect 23 0 27 0;
#X connect 24 0 23 0;
#X connect 26 0 30 0;
#X connect 26 1 49 0;
#X connect 26 2 31 0;
#X connect 27 0 22 0;
#X connect 27 0 22 1;
#X connect 28 0 27 3;
#X connect 29 0 27 4;
#X connect 30 0 39 0;
#X connect 31 0 20 0;
#X connect 39 0 23 1;
#X connect 40 0 24 0;
#X connect 41 0 25 0;
#X connect 41 1 26 0;
#X connect 41 2 42 0;
#X connect 41 3 43 0;
#X connect 42 0 44 0;
#X connect 45 0 9 0;
#X connect 46 0 9 0;
#X connect 47 0 9 0;
#X connect 48 0 49 1;
#X connect 49 0 21 0;
