#N canvas 467 214 790 410 10;
#X declare -path toposLib;
#X declare -lib mrpeach;
#X declare -lib mrpeach;
#X declare -lib mrpeach;
#X declare -lib mrpeach;
#X declare -lib mrpeach;
#X declare -lib mrpeach;
#X declare -lib mrpeach;
#X declare -lib mrpeach;
#X declare -lib mrpeach;
#X declare -lib mrpeach;
#X declare -lib mrpeach;
#X declare -lib mrpeach;
#X declare -lib mrpeach;
#X declare -lib mrpeach;
#X declare -lib mrpeach;
#X msg 48 199 record \$1;
#X obj 49 178 tgl 15 0 empty command/rec empty 17 7 0 10 -262144 -1
-1 0 1;
#X msg 116 200 play;
#X msg 155 201 stop;
#X floatatom 19 348 5 0 0 0 - - -;
#X msg 190 198 loop \$1;
#X obj 191 179 tgl 15 0 empty empty empty 17 7 0 10 -262144 -1 -1 0
1;
#X obj 633 -32 declare -path toposLib;
#X obj 20 74 pipelist;
#X obj 21 51 unpackOSC;
#X obj 21 26 udpreceive 12347;
#X obj 20 114 topos.synapse2skeleton body 3 1;
#X obj 165 56 tgl 15 0 empty empty empty 17 7 0 10 -262144 -1 -1 0
1;
#X msg 162 76 onOff \$1;
#X msg 128 75 body;
#X msg 81 76 world;
#X obj 517 280 scaleXYZ;
#X floatatom 547 256 5 0 0 0 - - -;
#X obj 518 234 translateXYZ;
#X floatatom 564 214 3 0 0 0 - - -;
#X floatatom 587 213 3 0 0 0 - - -;
#X floatatom 542 214 3 0 0 0 - - -;
#X obj 515 167 gemhead;
#X obj 517 191 rotateXYZ;
#X floatatom 573 166 5 0 0 0 - - -;
#X obj 19 -40 cnv 15 500 35 empty empty empty 20 12 0 14 -261234 -66577
0;
#X obj 501 82 topos.gemwin;
#X text 49 154 Control recording and playing;
#X text 275 168 Dialog:;
#X obj 500 141 cnv 10 16 16 empty empty empty 20 12 0 14 -4034 -66577
0;
#X obj 176 321 cnv 10 16 16 empty empty empty 20 12 0 14 -258113 -66577
0;
#X obj 475 68 cnv 10 16 16 empty empty empty 20 12 0 14 -4034 -66577
0;
#X obj 249 113 cnv 10 16 16 empty empty empty 20 12 0 14 -4034 -66577
0;
#X text 253 112 2;
#X obj 71 178 cnv 10 16 16 empty empty empty 20 12 0 14 -4034 -66577
0;
#X obj 118 179 cnv 10 16 16 empty empty empty 20 12 0 14 -4034 -66577
0;
#X obj 214 179 cnv 10 16 16 empty empty empty 20 12 0 14 -4034 -66577
0;
#X obj 180 226 cnv 10 16 16 empty empty empty 20 12 0 14 -4034 -66577
0;
#X obj 295 139 cnv 10 16 16 empty empty empty 20 12 0 14 -4034 -66577
0;
#X text 479 67 1;
#X text 75 177 3;
#X text 218 178 4;
#X text 122 178 5;
#X text 184 225 6;
#X text 302 138 7;
#X obj 227 94 cnv 10 16 16 empty empty empty 20 12 0 14 -258113 -66577
0;
#X obj 278 294 cnv 10 16 16 empty empty empty 20 12 0 14 -258113 -66577
0;
#X obj 605 321 cnv 10 16 16 empty empty empty 20 12 0 14 -258113 -66577
0;
#X obj 516 300 topos.skeleton 1;
#X obj 524 23 topos.skeleton 999;
#X obj 18 320 topos.rec 1;
#X obj 524 2 topos.rec 999;
#X msg 176 249 write dance3.txt;
#X text 27 -38 DEMO 2;
#X msg 303 269 load \$1;
#X msg 303 295 load movs/dance3.txt;
#X msg 322 169 load;
#X text 495 64 Open the gem window;
#X text 523 143 Change positions of the skeleton;
#X text 504 140 8;
#X msg 328 238 symbol movs/dance3.txt;
#X msg 326 214 symbol movs/dance2.txt;
#X msg 324 195 symbol movs/dance1.txt;
#X text 318 139 Load pre recorded files:;
#X text 27 -23 Recording \, playing and visualizing;
#X text 170 0 The topos.rec object records movement data and broadcasts
it to the the correspondent topos.skeleton. Ex: topos rec 999 will
send the data to [topos.skeleton 999];
#X connect 0 0 50 0;
#X connect 1 0 0 0;
#X connect 2 0 50 0;
#X connect 3 0 50 0;
#X connect 5 0 50 0;
#X connect 6 0 5 0;
#X connect 8 0 11 0;
#X connect 9 0 8 0;
#X connect 9 1 8 1;
#X connect 10 0 9 0;
#X connect 11 0 50 0;
#X connect 12 0 13 0;
#X connect 13 0 11 0;
#X connect 14 0 11 0;
#X connect 15 0 11 0;
#X connect 16 0 48 0;
#X connect 17 0 16 1;
#X connect 17 0 16 2;
#X connect 17 0 16 3;
#X connect 18 0 16 0;
#X connect 19 0 18 2;
#X connect 20 0 18 3;
#X connect 21 0 18 1;
#X connect 22 0 23 0;
#X connect 23 0 18 0;
#X connect 24 0 23 2;
#X connect 50 0 4 0;
#X connect 52 0 50 0;
#X connect 54 0 50 0;
#X connect 55 0 50 0;
#X connect 56 0 50 0;
#X connect 60 0 54 0;
#X connect 61 0 54 0;
#X connect 62 0 54 0;
