#N canvas 401 22 888 502 10;
#X declare -path mtl;
#X declare -path toposLib;
#X obj 19 242 topos.skeleton 1;
#X obj 19 208 gemhead;
#X obj 19 265 separator;
#X obj 19 304 topos LH ske/1/l_hand 100 10;
#X obj 227 11 gemhead;
#X obj 332 126 r ske/1/l_hand;
#X msg 332 51 debug lineParameters color 0 0 0;
#X msg 333 26 debug \$1;
#X obj 332 7 tgl 15 0 empty empty empty 17 7 0 10 -262144 -1 -1 0 1
;
#X msg 332 76 debug alpha 0.5;
#X text 438 128 You can use external data or...;
#X text 492 165 <- specify it as an argument;
#X text 331 107 Point 1;
#X text 373 152 Point 2;
#X text 323 -27 Debug shows the line representing the geometry between
the two points;
#X obj 296 299 route instability;
#X obj 197 340 route sumVelocity;
#X obj 394 251 route 3dAngle;
#X obj 481 206 route 3dDistance;
#X floatatom 299 323 5 0 0 0 - - -;
#X floatatom 397 271 5 0 0 0 - - -;
#X floatatom 480 225 5 0 0 0 - - -;
#X floatatom 202 361 5 0 0 0 - - -;
#X text 592 205 Distance between points;
#X obj 670 29 r ske/1/l_hand;
#X obj 732 73 topos.geo.displacement;
#X floatatom 733 96 5 0 0 0 - - -;
#X floatatom 731 151 5 0 0 0 - - -;
#X obj 729 126 topos.geo.velocity 50;
#X obj 227 172 topos.geo.2 geo2 ske/1/l_hand ske/1/r_hand;
#X text 408 295 Instability level (arbitrary magnitude). Takes into
account angle and size (weight) of the segment.;
#X msg 785 51 reset;
#X obj 520 -92 declare -path toposLib;
#X obj 11 -93 cnv 15 500 35 empty empty empty 20 12 0 14 -261234 -66577
0;
#X obj 520 -69 topos.gemwin;
#N canvas 1326 77 532 361 init 0;
#X obj 33 89 s toposrec/all/messages;
#X msg 33 59 loop 1;
#X obj 33 34 loadbang;
#X connect 1 0 0 0;
#X connect 2 0 1 0;
#X restore 724 -89 pd init;
#X text 317 343 sum of the instantaneous velocities of the two points
;
#X text 45 285 Creates the point cloud:;
#X text 30 224 Draws the skeleton:;
#X text 16 -76 Extractiong features from two 3D points;
#X text 485 247 computes the angle (radian) between both incoming vectors
(based on Mtl library);
#X msg 73 0 play;
#X msg 118 0 stop;
#X floatatom 8 126 5 0 0 0 - - -;
#X msg 15 0 loop \$1;
#X obj 7 102 topos.rec 1;
#X msg 24 26 load;
#X msg 99 33 load movs/dance1.txt;
#X msg 98 57 load movs/dance2.txt;
#X msg 99 79 load movs/dance3.txt;
#X obj 17 -19 tgl 15 0 empty empty empty 17 7 0 10 -262144 -1 -1 1
1;
#X obj 44 -24 cnv 10 16 16 empty empty empty 20 12 0 14 -4034 -66577
0;
#X obj 300 3 cnv 10 16 16 empty empty empty 20 12 0 14 -258113 -66577
0;
#X text 47 -25 1;
#X text 15 -93 DEMO 5;
#X obj 494 -50 cnv 10 16 16 empty empty empty 20 12 0 14 -4034 -66577
0;
#X text 497 -51 2;
#X obj 392 10 cnv 10 16 16 empty empty empty 20 12 0 14 -4034 -66577
0;
#X text 395 9 3;
#X obj 226 -10 cnv 10 16 16 empty empty empty 20 12 0 14 -258113 -66577
0;
#X obj 391 104 cnv 10 16 16 empty empty empty 20 12 0 14 -258113 -66577
0;
#X obj 321 236 cnv 10 16 16 empty empty empty 20 12 0 14 -258113 -66577
0;
#X obj 647 29 cnv 10 16 16 empty empty empty 20 12 0 14 -258113 -66577
0;
#X text 576 6 Get movement descriptors from a single point:;
#X connect 0 0 2 0;
#X connect 1 0 0 0;
#X connect 2 0 3 0;
#X connect 4 0 29 0;
#X connect 6 0 29 0;
#X connect 7 0 29 0;
#X connect 8 0 7 0;
#X connect 9 0 29 0;
#X connect 15 0 19 0;
#X connect 16 0 22 0;
#X connect 17 0 20 0;
#X connect 18 0 21 0;
#X connect 24 0 25 0;
#X connect 24 0 28 0;
#X connect 25 0 26 0;
#X connect 28 0 27 0;
#X connect 29 1 15 0;
#X connect 29 1 16 0;
#X connect 29 1 17 0;
#X connect 29 1 18 0;
#X connect 31 0 25 0;
#X connect 41 0 45 0;
#X connect 42 0 45 0;
#X connect 44 0 45 0;
#X connect 45 0 43 0;
#X connect 46 0 45 0;
#X connect 47 0 45 0;
#X connect 48 0 45 0;
#X connect 49 0 45 0;
#X connect 50 0 44 0;
