#N canvas 444 117 901 394 10;
#X declare -path toposLib;
#X declare -path mtl;
#X declare -lib iem_tab;
#N canvas 791 199 563 525 synthesis 0;
#X obj 23 2 inlet;
#X obj 220 75 vsl 10 40 0 1 0 0 empty empty empty 0 -9 0 10 -262144
-1 -1 1899 1;
#X obj 232 75 vsl 10 40 0 1 0 0 empty empty empty 0 -9 0 10 -262144
-1 -1 2427 1;
#X obj 244 76 vsl 10 40 0 1 0 0 empty empty empty 0 -9 0 10 -262144
-1 -1 3629 1;
#X obj 254 75 vsl 10 40 0 1 0 0 empty empty empty 0 -9 0 10 -262144
-1 -1 3732 1;
#X obj 266 75 vsl 10 40 0 1 0 0 empty empty empty 0 -9 0 10 -262144
-1 -1 2833 1;
#X obj 278 75 vsl 10 40 0 1 0 0 empty empty empty 0 -9 0 10 -262144
-1 -1 2572 1;
#X obj 288 75 vsl 10 40 0 1 0 0 empty empty empty 0 -9 0 10 -262144
-1 -1 3345 1;
#X obj 300 75 vsl 10 40 0 1 0 0 empty empty empty 0 -9 0 10 -262144
-1 -1 3749 1;
#X obj 312 75 vsl 10 40 0 1 0 0 empty empty empty 0 -9 0 10 -262144
-1 -1 3037 1;
#X obj 324 75 vsl 10 40 0 1 0 0 empty empty empty 0 -9 0 10 -262144
-1 -1 2481 1;
#X obj 200 30 unpack f f f f f f f f f f;
#X obj 118 164 line;
#X obj 227 286 vsl 10 40 0 1 0 0 empty empty empty 0 -9 0 10 -262144
-1 -1 2946 1;
#X obj 118 142 pack f 100;
#X obj 149 184 line;
#X obj 240 285 vsl 10 40 0 1 0 0 empty empty empty 0 -9 0 10 -262144
-1 -1 3594 1;
#X obj 149 162 pack f 100;
#X obj 184 204 line;
#X obj 252 287 vsl 10 40 0 1 0 0 empty empty empty 0 -9 0 10 -262144
-1 -1 3842 1;
#X obj 184 182 pack f 100;
#X obj 174 124 r \$0f;
#X obj 206 143 r \$0f;
#X obj 241 160 r \$0f;
#X obj 214 226 line;
#X obj 265 286 vsl 10 40 0 1 0 0 empty empty empty 0 -9 0 10 -262144
-1 -1 3527 1;
#X obj 214 204 pack f 100;
#X obj 271 182 r \$0f;
#X obj 245 247 line;
#X obj 275 284 vsl 10 40 0 1 0 0 empty empty empty 0 -9 0 10 -262144
-1 -1 3213 1;
#X obj 245 225 pack f 100;
#X obj 302 203 r \$0f;
#X obj 283 155 line;
#X obj 286 283 vsl 10 40 0 1 0 0 empty empty empty 0 -9 0 10 -262144
-1 -1 3547 1;
#X obj 283 133 pack f 100;
#X obj 314 175 line;
#X obj 298 283 vsl 10 40 0 1 0 0 empty empty empty 0 -9 0 10 -262144
-1 -1 3777 1;
#X obj 314 153 pack f 100;
#X obj 349 195 line;
#X obj 310 283 vsl 10 40 0 1 0 0 empty empty empty 0 -9 0 10 -262144
-1 -1 3632 1;
#X obj 349 173 pack f 100;
#X obj 339 115 r \$0f;
#X obj 371 134 r \$0f;
#X obj 406 151 r \$0f;
#X obj 379 217 line;
#X obj 322 283 vsl 10 40 0 1 0 0 empty empty empty 0 -9 0 10 -262144
-1 -1 3211 1;
#X obj 379 195 pack f 100;
#X obj 436 173 r \$0f;
#X obj 410 238 line;
#X obj 337 283 vsl 10 40 0 1 0 0 empty empty empty 0 -9 0 10 -262144
-1 -1 3267 1;
#X obj 410 216 pack f 100;
#X obj 467 194 r \$0f;
#X obj 208 355 pack f f f f f f f f f f;
#X text 438 120 Smoothing;
#X obj 27 492 outlet~;
#X obj 28 460 *~;
#X obj 400 411 inlet;
#X obj 449 420 inlet;
#X obj 29 54 t a b;
#X obj 195 5 inlet;
#X obj 96 484 lop~ 5;
#X obj 29 399 private/mtl/instrument~ 10 additive~ 0 0 0 0 0 0 0 0
0 0;
#X obj 94 461 ead~ 10 3000;
#X connect 0 0 58 0;
#X connect 1 0 14 0;
#X connect 2 0 17 0;
#X connect 3 0 20 0;
#X connect 4 0 26 0;
#X connect 5 0 30 0;
#X connect 6 0 34 0;
#X connect 7 0 37 0;
#X connect 8 0 40 0;
#X connect 9 0 46 0;
#X connect 10 0 50 0;
#X connect 11 0 1 0;
#X connect 11 1 2 0;
#X connect 11 2 3 0;
#X connect 11 3 4 0;
#X connect 11 4 5 0;
#X connect 11 5 6 0;
#X connect 11 6 7 0;
#X connect 11 7 8 0;
#X connect 11 8 9 0;
#X connect 11 9 10 0;
#X connect 12 0 13 0;
#X connect 13 0 52 0;
#X connect 14 0 12 0;
#X connect 15 0 16 0;
#X connect 16 0 52 1;
#X connect 17 0 15 0;
#X connect 18 0 19 0;
#X connect 19 0 52 2;
#X connect 20 0 18 0;
#X connect 21 0 14 1;
#X connect 23 0 20 1;
#X connect 24 0 25 0;
#X connect 25 0 52 3;
#X connect 26 0 24 0;
#X connect 27 0 26 1;
#X connect 28 0 29 0;
#X connect 29 0 52 4;
#X connect 30 0 28 0;
#X connect 31 0 30 1;
#X connect 32 0 33 0;
#X connect 33 0 52 5;
#X connect 34 0 32 0;
#X connect 35 0 36 0;
#X connect 36 0 52 6;
#X connect 37 0 35 0;
#X connect 38 0 39 0;
#X connect 39 0 52 7;
#X connect 40 0 38 0;
#X connect 41 0 34 1;
#X connect 43 0 40 1;
#X connect 44 0 45 0;
#X connect 45 0 52 8;
#X connect 46 0 44 0;
#X connect 47 0 46 1;
#X connect 48 0 49 0;
#X connect 49 0 52 9;
#X connect 50 0 48 0;
#X connect 51 0 50 1;
#X connect 52 0 61 1;
#X connect 55 0 54 0;
#X connect 56 0 62 1;
#X connect 57 0 62 2;
#X connect 58 0 61 0;
#X connect 58 1 62 0;
#X connect 59 0 11 0;
#X connect 60 0 55 1;
#X connect 61 0 55 0;
#X connect 62 0 60 0;
#X restore 310 188 pd synthesis;
#X obj 297 216 output~;
#X obj 513 -131 declare -path toposLib;
#X obj 4 -132 cnv 15 500 35 empty empty empty 20 12 0 14 -261234 -66577
0;
#X obj 513 -108 topos.gemwin;
#N canvas 1326 78 532 361 init 0;
#X obj 33 89 s toposrec/all/messages;
#X msg 33 59 loop 1;
#X obj 33 34 loadbang;
#X connect 1 0 0 0;
#X connect 2 0 1 0;
#X restore 717 -128 pd init;
#X obj 5 131 topos.skeleton 1;
#X obj 4 108 gemhead;
#X obj 5 168 separator;
#X obj 5 190 topos LH ske/1/l_hand 100 10;
#X msg 169 163 freeze \$1;
#X obj 169 143 tgl 15 0 empty empty empty 17 7 0 10 -262144 -1 -1 0
1;
#X text 4 88 FEATURE DETECTION;
#X obj 249 -72 gemhead;
#N canvas 735 483 450 300 note 1;
#X obj 55 20 inlet;
#X obj 64 207 pack f 100;
#X obj 64 229 outlet;
#X msg 139 131 0 2 4 7 9 12 14 16 19 21 22;
#X obj 55 92 random 10;
#X obj 64 156 list-nth;
#X obj 66 183 + 48;
#X obj 135 21 inlet;
#X obj 136 102 t b f b;
#X obj 55 69 metro 500;
#X obj 108 45 f 500;
#X floatatom 116 71 5 0 0 0 - - -;
#X obj 101 19 inlet;
#X connect 0 0 9 0;
#X connect 1 0 2 0;
#X connect 3 0 5 0;
#X connect 4 0 8 0;
#X connect 5 0 6 0;
#X connect 6 0 1 0;
#X connect 7 0 10 1;
#X connect 8 0 3 0;
#X connect 8 1 5 1;
#X connect 8 2 10 0;
#X connect 9 0 4 0;
#X connect 10 0 9 1;
#X connect 10 0 11 0;
#X connect 12 0 4 0;
#X restore 279 163 pd note generator;
#X obj 277 142 tgl 15 0 empty empty empty 17 7 0 10 -262144 -1 -1 0
1;
#X text 378 115 metro time;
#X floatatom 455 139 5 0 0 0 - - -;
#X floatatom 505 141 5 0 0 0 - - -;
#X text 454 123 attack;
#X text 505 123 decay;
#N canvas 0 22 450 278 (subpatch) 0;
#X array array1 10 float 3;
#A 0 0.622313 0.930416 0.956885 0.726304 0.659422 0.857595 0.961219
0.778707 0.636254 0.486826;
#X coords 0 0 10 1 150 90 1 0 0;
#X restore 585 158 graph;
#X obj 636 80 list-enumerate;
#X obj 636 127 tabwrite array1;
#X obj 639 105 unpack f f;
#X text 548 27 Distances from Right hand to all 10 points of the point
cloud;
#X text 234 72 SYNTHESIS;
#X text 435 -15 MAPPING;
#X text 120 139 Try it:;
#X floatatom 489 34 5 0 0 0 - - -;
#X floatatom 489 56 5 0 0 0 - - -;
#X msg 74 -72 play;
#X msg 119 -72 stop;
#X floatatom 9 54 5 0 0 0 - - -;
#X msg 16 -72 loop \$1;
#X obj 8 30 topos.rec 1;
#X msg 25 -46 load;
#X msg 100 -39 load movs/dance1.txt;
#X msg 99 -15 load movs/dance2.txt;
#X msg 100 7 load movs/dance3.txt;
#X obj 19 -92 tgl 15 0 empty empty empty 17 7 0 10 -262144 -1 -1 1
1;
#X obj 489 -89 cnv 10 16 16 empty empty empty 20 12 0 14 -4034 -66577
0;
#X obj 62 -91 cnv 10 16 16 empty empty empty 20 12 0 14 -4034 -66577
0;
#X text 65 -91 1;
#X text 492 -89 2;
#X obj 256 143 cnv 10 16 16 empty empty empty 20 12 0 14 -4034 -66577
0;
#X text 259 143 3;
#X obj 273 236 cnv 10 16 16 empty empty empty 20 12 0 14 -4034 -66577
0;
#X text 276 236 4;
#X obj 529 36 cnv 10 16 16 empty empty empty 20 12 0 14 -4034 -66577
0;
#X text 532 36 5;
#X floatatom 382 139 5 0 0 0 - - -;
#X text 7 -115 Applications: point-region features to additive synthesis
;
#X text 8 -132 DEMO 8;
#X obj 324 -61 cnv 10 16 16 empty empty empty 20 12 0 14 -258113 -66577
0;
#X obj 255 120 cnv 10 16 16 empty empty empty 20 12 0 14 -258113 -66577
0;
#X obj 595 105 cnv 10 16 16 empty empty empty 20 12 0 14 -258113 -66577
0;
#X obj 326 138 bng 15 250 50 0 empty empty empty 17 7 0 10 -262144
-1 -1;
#X obj 304 3 route collision distanceFrom;
#X obj 278 33 pddp/print;
#X obj 250 -39 topos.rel.pointRegion rel ske/1/r_hand LH 0.4;
#X obj 385 30 list-math - 0.42;
#X obj 384 55 list-math * 0.7;
#X text 322 122 Note;
#X text 277 118 Metro;
#X connect 0 0 1 0;
#X connect 0 0 1 1;
#X connect 6 0 8 0;
#X connect 7 0 6 0;
#X connect 8 0 9 0;
#X connect 10 0 9 2;
#X connect 11 0 10 0;
#X connect 13 0 60 0;
#X connect 14 0 0 0;
#X connect 15 0 14 0;
#X connect 17 0 0 2;
#X connect 18 0 0 3;
#X connect 22 0 24 0;
#X connect 24 0 23 1;
#X connect 24 1 23 0;
#X connect 29 0 61 1;
#X connect 30 0 62 1;
#X connect 31 0 35 0;
#X connect 32 0 35 0;
#X connect 34 0 35 0;
#X connect 35 0 33 0;
#X connect 36 0 35 0;
#X connect 37 0 35 0;
#X connect 38 0 35 0;
#X connect 39 0 35 0;
#X connect 40 0 34 0;
#X connect 51 0 14 2;
#X connect 57 0 14 1;
#X connect 58 0 59 0;
#X connect 58 1 61 0;
#X connect 60 1 58 0;
#X connect 61 0 62 0;
#X connect 62 0 0 1;
#X connect 62 0 22 0;
