#N canvas 407 200 815 674 10;
#X declare -path toposLib;
#X declare -path mtl;
#X declare -path mtl;
#X declare -lib iem_tab;
#X declare -lib iem_tab;
#X declare -lib iem_tab;
#X obj 149 147 output~;
#N canvas 639 413 619 185 briefing 0;
#X text 29 -9 hand choreographies;
#X text 283 52 calm rhythm \, intensity proportional to activity;
#X text 282 93 change rhythm to arhythm \, attacks on fast movements
;
#X text 276 134 intense rhythm \, intensity proportional to space;
#X text 29 51 hands separated;
#X text 26 92 hands on neighbour regions;
#X text 28 134 regions are overllaped \, use of space;
#X text 278 21 MUSIC;
#X text 33 20 MOVEMENT;
#X restore 265 -433 pd briefing;
#X msg 312 -291 color 1 0 0;
#X msg 310 -316 color 0 0 1;
#X msg -111 -161 debug \$1;
#X obj -111 -179 tgl 15 0 empty empty empty 17 7 0 10 -262144 -1 -1
1 1;
#X obj -120 -203 gemhead;
#X obj -115 -64 pddp/print;
#X obj -119 -97 route toposState distanceFrom;
#X obj 369 -472 declare -path toposLib;
#X obj -140 -473 cnv 15 500 35 empty empty empty 20 12 0 14 -261234
-66577 0;
#X obj 369 -449 topos.gemwin;
#N canvas 1326 77 532 361 init 0;
#X obj 33 89 s toposrec/all/messages;
#X msg 33 59 loop 1;
#X obj 33 34 loadbang;
#X connect 1 0 0 0;
#X connect 2 0 1 0;
#X restore 573 -469 pd init;
#X obj 118 -387 topos.skeleton 1;
#X obj 112 -421 gemhead;
#X obj 118 -364 separator;
#X text 129 -405 Draws the skeleton:;
#X text 145 -345 Creates the point clouds for both hands:;
#X obj 517 -370 s topos/all/messages;
#X text 259 -213 Point-to-Point relationships:;
#X text -128 -228 Region-to-Region relationships:;
#X msg -41 -161 debug color 0 0 0;
#N canvas 860 76 580 657 rhythm 0;
#X obj 72 32 inlet;
#X obj 231 41 list-len;
#X obj 155 142 f+;
#X floatatom 189 186 5 0 0 0 - - -;
#X obj 74 154 list;
#X obj 245 176 bng 15 250 50 0 empty empty empty 17 7 0 10 -262144
-1 -1;
#X obj 30 266 pack f f;
#X obj 234 63 change;
#X obj 231 88 debounce 200;
#X msg 220 246 1;
#X obj 237 128 >;
#X obj 240 156 sel 1;
#X obj -144 43 inlet;
#X obj -166 196 random 10;
#X obj -161 275 list-nth;
#X obj -159 302 + 48;
#X obj -65 33 inlet;
#X obj -166 220 t b f b;
#X obj -175 46 tgl 15 0 empty empty empty 17 7 0 10 -262144 -1 -1 0
1;
#X obj 19 94 t f b b f;
#X obj 31 335 outlet;
#X obj -143 80 metro 150;
#X obj 76 205 route float;
#X obj 73 228 moses 1;
#X obj 40 219 f;
#X obj 106 261 t b f;
#X msg -163 249 0 2 4 7 9 12 14 16 19 21 22 23;
#X obj 157 165 t f f;
#X obj 166 68 t a a b;
#X msg 235 197 0;
#X obj 190 207 + 1;
#X obj 78 181 list-idx;
#X connect 0 0 4 1;
#X connect 1 0 7 0;
#X connect 2 0 27 0;
#X connect 3 0 30 0;
#X connect 4 0 28 0;
#X connect 5 0 29 0;
#X connect 6 0 20 0;
#X connect 7 0 8 0;
#X connect 8 0 10 1;
#X connect 10 0 11 0;
#X connect 11 0 5 0;
#X connect 12 0 21 0;
#X connect 13 0 17 0;
#X connect 14 0 15 0;
#X connect 15 0 19 0;
#X connect 16 0 21 1;
#X connect 17 0 26 0;
#X connect 17 1 14 1;
#X connect 18 0 21 0;
#X connect 19 0 24 1;
#X connect 19 1 4 0;
#X connect 19 2 2 0;
#X connect 21 0 13 0;
#X connect 22 0 23 0;
#X connect 23 1 25 0;
#X connect 24 0 6 0;
#X connect 25 0 24 0;
#X connect 25 1 6 1;
#X connect 26 0 14 0;
#X connect 27 0 31 1;
#X connect 27 1 3 0;
#X connect 28 0 31 0;
#X connect 28 1 1 0;
#X connect 29 0 2 0;
#X connect 30 0 10 0;
#X connect 31 0 22 0;
#X restore -20 13 pd rhythm;
#N canvas 785 231 563 525 synthesis 0;
#X obj 23 2 inlet;
#X obj 220 75 vsl 10 40 0 1 0 0 empty empty empty 0 -9 0 10 -262144
-1 -1 1562 1;
#X obj 232 75 vsl 10 40 0 1 0 0 empty empty empty 0 -9 0 10 -262144
-1 -1 715 1;
#X obj 244 76 vsl 10 40 0 1 0 0 empty empty empty 0 -9 0 10 -262144
-1 -1 1384 1;
#X obj 254 75 vsl 10 40 0 1 0 0 empty empty empty 0 -9 0 10 -262144
-1 -1 1489 1;
#X obj 266 75 vsl 10 40 0 1 0 0 empty empty empty 0 -9 0 10 -262144
-1 -1 1017 1;
#X obj 278 75 vsl 10 40 0 1 0 0 empty empty empty 0 -9 0 10 -262144
-1 -1 887 1;
#X obj 288 75 vsl 10 40 0 1 0 0 empty empty empty 0 -9 0 10 -262144
-1 -1 1000 1;
#X obj 300 75 vsl 10 40 0 1 0 0 empty empty empty 0 -9 0 10 -262144
-1 -1 912 1;
#X obj 312 75 vsl 10 40 0 1 0 0 empty empty empty 0 -9 0 10 -262144
-1 -1 725 1;
#X obj 324 75 vsl 10 40 0 1 0 0 empty empty empty 0 -9 0 10 -262144
-1 -1 1291 1;
#X obj 200 30 unpack f f f f f f f f f f;
#X obj 118 164 line;
#X obj 227 286 vsl 10 40 0 1 0 0 empty empty empty 0 -9 0 10 -262144
-1 -1 1242 1;
#X obj 118 142 pack f 100;
#X obj 149 184 line;
#X obj 240 285 vsl 10 40 0 1 0 0 empty empty empty 0 -9 0 10 -262144
-1 -1 983 1;
#X obj 149 162 pack f 100;
#X obj 184 204 line;
#X obj 252 287 vsl 10 40 0 1 0 0 empty empty empty 0 -9 0 10 -262144
-1 -1 1490 1;
#X obj 184 182 pack f 100;
#X obj 174 124 r \$0f;
#X obj 206 143 r \$0f;
#X obj 241 160 r \$0f;
#X obj 214 226 line;
#X obj 265 286 vsl 10 40 0 1 0 0 empty empty empty 0 -9 0 10 -262144
-1 -1 1398 1;
#X obj 214 204 pack f 100;
#X obj 271 182 r \$0f;
#X obj 245 247 line;
#X obj 275 284 vsl 10 40 0 1 0 0 empty empty empty 0 -9 0 10 -262144
-1 -1 989 1;
#X obj 245 225 pack f 100;
#X obj 302 203 r \$0f;
#X obj 283 155 line;
#X obj 286 283 vsl 10 40 0 1 0 0 empty empty empty 0 -9 0 10 -262144
-1 -1 862 1;
#X obj 283 133 pack f 100;
#X obj 314 175 line;
#X obj 298 283 vsl 10 40 0 1 0 0 empty empty empty 0 -9 0 10 -262144
-1 -1 868 1;
#X obj 314 153 pack f 100;
#X obj 349 195 line;
#X obj 310 283 vsl 10 40 0 1 0 0 empty empty empty 0 -9 0 10 -262144
-1 -1 789 1;
#X obj 349 173 pack f 100;
#X obj 339 115 r \$0f;
#X obj 371 134 r \$0f;
#X obj 406 151 r \$0f;
#X obj 379 217 line;
#X obj 322 283 vsl 10 40 0 1 0 0 empty empty empty 0 -9 0 10 -262144
-1 -1 889 1;
#X obj 379 195 pack f 100;
#X obj 436 173 r \$0f;
#X obj 410 238 line;
#X obj 337 283 vsl 10 40 0 1 0 0 empty empty empty 0 -9 0 10 -262144
-1 -1 1317 1;
#X obj 410 216 pack f 100;
#X obj 467 194 r \$0f;
#X obj 208 355 pack f f f f f f f f f f;
#X text 438 120 Smoothing;
#X obj 27 492 outlet~;
#X obj 28 460 *~;
#X obj 400 411 inlet;
#X obj 449 420 inlet;
#X obj 29 54 t a b;
#X obj 195 5 inlet;
#X obj 96 484 lop~ 5;
#X obj 29 399 private/mtl/instrument~ 10 additive~ 0 0 0 0 0 0 0 0
0 0;
#X obj 94 461 ead~ 10 1000;
#X connect 0 0 58 0;
#X connect 1 0 14 0;
#X connect 2 0 17 0;
#X connect 3 0 20 0;
#X connect 4 0 26 0;
#X connect 5 0 30 0;
#X connect 6 0 34 0;
#X connect 7 0 37 0;
#X connect 8 0 40 0;
#X connect 9 0 46 0;
#X connect 10 0 50 0;
#X connect 11 0 1 0;
#X connect 11 1 2 0;
#X connect 11 2 3 0;
#X connect 11 3 4 0;
#X connect 11 4 5 0;
#X connect 11 5 6 0;
#X connect 11 6 7 0;
#X connect 11 7 8 0;
#X connect 11 8 9 0;
#X connect 11 9 10 0;
#X connect 12 0 13 0;
#X connect 13 0 52 0;
#X connect 14 0 12 0;
#X connect 15 0 16 0;
#X connect 16 0 52 1;
#X connect 17 0 15 0;
#X connect 18 0 19 0;
#X connect 19 0 52 2;
#X connect 20 0 18 0;
#X connect 21 0 14 1;
#X connect 23 0 20 1;
#X connect 24 0 25 0;
#X connect 25 0 52 3;
#X connect 26 0 24 0;
#X connect 27 0 26 1;
#X connect 28 0 29 0;
#X connect 29 0 52 4;
#X connect 30 0 28 0;
#X connect 31 0 30 1;
#X connect 32 0 33 0;
#X connect 33 0 52 5;
#X connect 34 0 32 0;
#X connect 35 0 36 0;
#X connect 36 0 52 6;
#X connect 37 0 35 0;
#X connect 38 0 39 0;
#X connect 39 0 52 7;
#X connect 40 0 38 0;
#X connect 41 0 34 1;
#X connect 43 0 40 1;
#X connect 44 0 45 0;
#X connect 45 0 52 8;
#X connect 46 0 44 0;
#X connect 47 0 46 1;
#X connect 48 0 49 0;
#X connect 49 0 52 9;
#X connect 50 0 48 0;
#X connect 51 0 50 1;
#X connect 52 0 61 1;
#X connect 55 0 54 0;
#X connect 56 0 62 1;
#X connect 57 0 62 2;
#X connect 58 0 61 0;
#X connect 58 1 62 0;
#X connect 59 0 11 0;
#X connect 60 0 55 1;
#X connect 61 0 55 0;
#X connect 62 0 60 0;
#X restore 139 85 pd synthesis;
#X floatatom 261 45 5 0 0 0 - - -;
#X floatatom 311 47 5 0 0 0 - - -;
#X text 260 29 attack;
#X text 311 29 decay;
#X msg -65 -412 play;
#X msg -20 -412 stop;
#X floatatom -130 -286 5 0 0 0 - - -;
#X msg -123 -412 loop \$1;
#X obj -131 -310 topos.rec 1;
#X msg -114 -386 load;
#X msg -39 -379 load movs/dance1.txt;
#X msg -40 -355 load movs/dance2.txt;
#X msg -39 -333 load movs/dance3.txt;
#X obj -121 -431 tgl 15 0 empty empty empty 17 7 0 10 -262144 -1 -1
1 1;
#X obj 15 -72 route touch in out;
#X msg 518 -392 alpha 0.4;
#X obj -20 -19 tgl 15 0 empty empty empty 17 7 0 10 -262144 -1 -1 1
1;
#X obj 208 3 route centerPointsDist;
#X msg 50 -21 100 80 60 40 20 10 5;
#X msg 89 2 60 0 70 0 120 60;
#X msg 17 -43 100 0 40 0 100 0 40 10 10;
#X obj 476 -81 route instability;
#N canvas 647 241 450 300 distort 0;
#X obj 93 42 inlet~;
#X obj 94 128 clip~ -0.5 0.5;
#X obj 274 64 inlet;
#X obj 327 115 * 1;
#X msg 274 150 1;
#X obj 283 181 -;
#X obj 273 113 t b f;
#X floatatom 288 209 5 0 0 0 - - -;
#X floatatom 339 206 5 0 0 0 - - -;
#X obj 77 204 *~;
#X obj 115 203 *~;
#X obj 90 272 outlet~;
#X obj 129 241 /~ 2;
#X obj 97 102 *~ 5;
#X connect 0 0 9 0;
#X connect 0 0 13 0;
#X connect 1 0 10 0;
#X connect 2 0 6 0;
#X connect 2 0 3 0;
#X connect 3 0 8 0;
#X connect 4 0 5 0;
#X connect 5 0 7 0;
#X connect 6 0 4 0;
#X connect 6 1 5 1;
#X connect 7 0 9 1;
#X connect 8 0 10 1;
#X connect 9 0 12 0;
#X connect 10 0 12 0;
#X connect 12 0 11 0;
#X connect 13 0 1 0;
#X restore 149 116 pd distort;
#N canvas 532 122 450 300 filter 0;
#X obj 63 -23 mtof;
#X floatatom 63 2 5 0 0 0 - - -;
#X obj 52 60 bp~;
#X floatatom 74 30 5 0 1000 0 - #0-q -;
#X floatatom 63 -45 5 0 0 0 - - -;
#X obj 37 -30 inlet~;
#X obj 57 96 outlet~;
#X connect 0 0 1 0;
#X connect 1 0 2 1;
#X connect 2 0 6 0;
#X connect 3 0 2 2;
#X connect 4 0 0 0;
#X connect 5 0 2 0;
#X restore 248 162 pd filter;
#X obj 124 -315 topos lh ske/1/l_hand 100 10;
#X obj 117 -289 topos rh ske/1/r_hand 100 10;
#X obj 208 -24 topos.features rh xyzRange;
#X obj -120 -128 topos.rel.regions RR lh rh 1;
#X msg 332 -169 debug \$1;
#X obj 334 -187 tgl 15 0 empty empty empty 17 7 0 10 -262144 -1 -1
1 1;
#X obj 262 -159 gemhead;
#X obj 264 -115 topos.geo.2 inst ske/1/torso ske/1/head;
#X floatatom 477 -37 5 0 0 0 - - -;
#X text 200 -49 Features of the right hand;
#X text -137 -457 Mapping relationships between regions to rhythm;
#X text -139 -472 DEMO 10;
#X obj -80 -181 cnv 10 16 16 empty empty empty 20 12 0 14 -4034 -66577
0;
#X obj 312 97 cnv 10 16 16 empty empty empty 20 12 0 14 -258113 -66577
0;
#X text -86 -22 rhythms:;
#X obj 351 -428 cnv 10 16 16 empty empty empty 20 12 0 14 -4034 -66577
0;
#X text 354 -428 2;
#X obj -102 -431 cnv 10 16 16 empty empty empty 20 12 0 14 -4034 -66577
0;
#X text -99 -431 1;
#X obj -134 -58 cnv 10 16 16 empty empty empty 20 12 0 14 -258113 -66577
0;
#X text -77 -181 3;
#X obj 377 -188 cnv 10 16 16 empty empty empty 20 12 0 14 -4034 -66577
0;
#X text 380 -189 4;
#X text 439 -136 Detect instability of the dancer;
#X text 223 119 Map instability to distortion;
#X text 68 -119 Map topolofical features to rhythm;
#X obj -58 0 cnv 10 16 16 empty empty empty 20 12 0 14 -4034 -66577
0;
#X text -55 -1 5;
#X obj 443 -38 cnv 10 16 16 empty empty empty 20 12 0 14 -258113 -66577
0;
#X obj 375 -23 cnv 10 16 16 empty empty empty 20 12 0 14 -258113 -66577
0;
#X obj 313 -188 cnv 10 16 16 empty empty empty 20 12 0 14 -258113 -66577
0;
#X connect 2 0 49 2;
#X connect 3 0 48 2;
#X connect 4 0 51 0;
#X connect 5 0 4 0;
#X connect 6 0 51 0;
#X connect 8 0 7 0;
#X connect 8 0 38 0;
#X connect 13 0 15 0;
#X connect 14 0 13 0;
#X connect 15 0 48 0;
#X connect 15 0 49 0;
#X connect 21 0 51 0;
#X connect 22 0 23 0;
#X connect 23 0 46 0;
#X connect 24 0 23 2;
#X connect 25 0 23 3;
#X connect 28 0 32 0;
#X connect 29 0 32 0;
#X connect 31 0 32 0;
#X connect 32 0 30 0;
#X connect 33 0 32 0;
#X connect 34 0 32 0;
#X connect 35 0 32 0;
#X connect 36 0 32 0;
#X connect 37 0 31 0;
#X connect 38 0 44 0;
#X connect 38 1 42 0;
#X connect 38 2 43 0;
#X connect 39 0 18 0;
#X connect 40 0 22 0;
#X connect 41 0 23 1;
#X connect 42 0 22 2;
#X connect 43 0 22 2;
#X connect 44 0 22 2;
#X connect 45 0 46 1;
#X connect 45 0 56 0;
#X connect 46 0 0 0;
#X connect 50 0 41 0;
#X connect 51 2 8 0;
#X connect 52 0 55 0;
#X connect 53 0 52 0;
#X connect 54 0 55 0;
#X connect 55 1 45 0;
