#N canvas 394 252 885 463 10;
#X declare -path toposLib;
#X declare -path mtl;
#X declare -path mtl;
#X declare -lib iem_tab;
#X declare -lib iem_tab;
#X declare -lib iem_tab;
#X msg 379 138 debug color 0 0 0;
#X obj 22 240 pddp/print;
#X floatatom 139 242 5 0 0 0 - - -;
#X msg 372 55 color 1 0 0;
#X msg 370 30 color 0 0 1;
#X msg 587 139 debug \$1;
#X obj 587 121 tgl 15 0 empty empty empty 17 7 0 10 -262144 -1 -1 1
1;
#X obj 525 124 gemhead;
#X obj 527 225 pddp/print;
#X obj 526 193 route toposState distanceFrom;
#X obj 613 256 pddp/print;
#X msg 311 137 debug \$1;
#X obj 312 119 tgl 15 0 empty empty empty 17 7 0 10 -262144 -1 -1 0
1;
#X obj 225 124 gemhead;
#X obj 429 -126 declare -path toposLib;
#X obj -80 -127 cnv 15 500 35 empty empty empty 20 12 0 14 -261234
-66577 0;
#X obj 429 -103 topos.gemwin;
#N canvas 1326 77 532 361 init 0;
#X obj 33 89 s toposrec/all/messages;
#X msg 33 59 loop 1;
#X obj 33 34 loadbang;
#X connect 1 0 0 0;
#X connect 2 0 1 0;
#X restore 633 -123 pd init;
#X obj 178 -41 topos.skeleton 1;
#X obj 178 -75 gemhead;
#X obj 178 -18 separator;
#X text 189 -59 Draws the skeleton:;
#X text 204 5 Creates the point clouds for both hands:;
#X obj 584 29 s topos/all/messages;
#X text -83 112 Point-to-Point relationships:;
#X text 218 102 Point-to-Region relationships:;
#X text 521 96 Region-to-Region relationships:;
#X text -79 -111 Detecting relationships between points and regions
;
#X msg 649 140 debug color 0 0 0;
#X obj 275 273 pddp/print;
#X obj 358 301 pddp/print;
#X obj -82 165 topos.rel.points PP ske/1/r_hand ske/1/l_hand 0.2;
#X msg -3 -66 play;
#X msg 42 -66 stop;
#X floatatom -68 60 5 0 0 0 - - -;
#X msg -61 -66 loop \$1;
#X obj -69 36 topos.rec 1;
#X msg -52 -40 load;
#X msg 23 -33 load movs/dance1.txt;
#X msg 22 -9 load movs/dance2.txt;
#X msg 23 13 load movs/dance3.txt;
#X obj -64 -85 tgl 15 0 empty empty empty 17 7 0 10 -262144 -1 -1 1
1;
#X obj 405 -83 cnv 10 16 16 empty empty empty 20 12 0 14 -4034 -66577
0;
#X obj 564 31 cnv 10 16 16 empty empty empty 20 12 0 14 -258113 -66577
0;
#X obj -34 -85 cnv 10 16 16 empty empty empty 20 12 0 14 -4034 -66577
0;
#X text -31 -86 1;
#X text 408 -84 2;
#X obj 460 29 cnv 10 16 16 empty empty empty 20 12 0 14 -4034 -66577
0;
#X text 463 28 3;
#X obj 547 -43 cnv 10 16 16 empty empty empty 20 12 0 14 -4034 -66577
0;
#X text 550 -44 4;
#X obj 614 -17 hsl 128 15 0 1 0 0 empty empty empty -2 -8 0 10 -262144
-1 -1 0 1;
#X msg 610 1 randomLevel \$1;
#X msg 585 -38 alpha \$1;
#X obj 588 -57 hsl 128 15 0 1 0 0 empty empty empty -2 -8 0 10 -262144
-1 -1 0 1;
#X obj -78 133 gemhead;
#X obj 184 31 topos lh ske/1/l_hand 100 10;
#X obj 177 57 topos rh ske/1/r_hand 100 10;
#X obj 525 162 topos.rel.regions RR rh lh 1;
#X obj 226 167 topos.rel.pointRegion PR ske/1/r_hand lh 0.2;
#X obj 273 223 route distanceFrom collision;
#X obj 23 209 route hitPoint distanceFrom;
#X obj 155 40 cnv 10 16 16 empty empty empty 20 12 0 14 -258113 -66577
0;
#X obj -79 94 cnv 10 16 16 empty empty empty 20 12 0 14 -4034 -66577
0;
#X text -76 93 5;
#X obj 332 118 cnv 10 16 16 empty empty empty 20 12 0 14 -4034 -66577
0;
#X text 335 117 6;
#X obj 612 118 cnv 10 16 16 empty empty empty 20 12 0 14 -4034 -66577
0;
#X text 615 117 7;
#X text -78 -126 DEMO 6;
#X connect 0 0 59 0;
#X connect 3 0 57 2;
#X connect 4 0 56 2;
#X connect 5 0 58 0;
#X connect 6 0 5 0;
#X connect 7 0 58 0;
#X connect 9 0 8 0;
#X connect 9 1 10 0;
#X connect 11 0 59 0;
#X connect 12 0 11 0;
#X connect 13 0 59 0;
#X connect 18 0 20 0;
#X connect 19 0 18 0;
#X connect 20 0 56 0;
#X connect 20 0 57 0;
#X connect 28 0 58 0;
#X connect 31 1 61 0;
#X connect 32 0 36 0;
#X connect 33 0 36 0;
#X connect 35 0 36 0;
#X connect 36 0 34 0;
#X connect 37 0 36 0;
#X connect 38 0 36 0;
#X connect 39 0 36 0;
#X connect 40 0 36 0;
#X connect 41 0 35 0;
#X connect 51 0 52 0;
#X connect 52 0 23 0;
#X connect 53 0 23 0;
#X connect 54 0 53 0;
#X connect 55 0 31 0;
#X connect 58 2 9 0;
#X connect 59 1 60 0;
#X connect 60 0 29 0;
#X connect 60 1 30 0;
#X connect 61 0 1 0;
#X connect 61 1 2 0;
